<mxfile host="Electron" agent="Mozilla/5.0 (X11; Linux x86_64) AppleWebKit/537.36 (KHTML, like Gecko) draw.io/27.0.9 Chrome/134.0.6998.205 Electron/35.4.0 Safari/537.36" version="27.0.9">
  <diagram name="Page-1" id="viqczqShVoEzVBy3qoHJ">
    <mxGraphModel dx="2963" dy="5275" grid="1" gridSize="10" guides="1" tooltips="1" connect="1" arrows="1" fold="1" page="1" pageScale="1" pageWidth="1169" pageHeight="827" math="0" shadow="0">
      <root>
        <mxCell id="0" />
        <mxCell id="1" parent="0" />
        <mxCell id="2mbNPDo5h_TuIW9_OA9t-41" value="Cluster" style="rounded=1;whiteSpace=wrap;html=1;fillColor=none;strokeColor=#6c8ebf;strokeWidth=4;verticalAlign=bottom;" vertex="1" parent="1">
          <mxGeometry x="2180" y="-1100" width="3490" height="2230" as="geometry" />
        </mxCell>
        <mxCell id="2mbNPDo5h_TuIW9_OA9t-47" style="edgeStyle=orthogonalEdgeStyle;rounded=0;orthogonalLoop=1;jettySize=auto;html=1;entryX=0.75;entryY=0;entryDx=0;entryDy=0;" edge="1" parent="1" source="DeHTJNHGIXKyEyiTh7xm-11" target="2mbNPDo5h_TuIW9_OA9t-1">
          <mxGeometry relative="1" as="geometry" />
        </mxCell>
        <mxCell id="DeHTJNHGIXKyEyiTh7xm-11" value="PROXY" style="rounded=0;whiteSpace=wrap;html=1;fontSize=30;" parent="1" vertex="1">
          <mxGeometry x="3567.08" y="-1420" width="260" height="150" as="geometry" />
        </mxCell>
        <mxCell id="DeHTJNHGIXKyEyiTh7xm-12" value="8001" style="rounded=0;whiteSpace=wrap;html=1;" parent="1" vertex="1">
          <mxGeometry x="3637.08" y="-1480" width="120" height="60" as="geometry" />
        </mxCell>
        <mxCell id="DeHTJNHGIXKyEyiTh7xm-26" value="Actor" style="shape=umlActor;verticalLabelPosition=bottom;verticalAlign=top;html=1;outlineConnect=0;" parent="1" vertex="1">
          <mxGeometry x="3107.96" y="-2130" width="157" height="240" as="geometry" />
        </mxCell>
        <mxCell id="2mbNPDo5h_TuIW9_OA9t-42" style="edgeStyle=orthogonalEdgeStyle;rounded=0;orthogonalLoop=1;jettySize=auto;html=1;entryX=0.5;entryY=0;entryDx=0;entryDy=0;" edge="1" parent="1" source="DeHTJNHGIXKyEyiTh7xm-27" target="D6wJzif5LY3Q9ZG8cFxP-8">
          <mxGeometry relative="1" as="geometry">
            <Array as="points">
              <mxPoint x="3455" y="-1730" />
              <mxPoint x="2907" y="-1730" />
            </Array>
          </mxGeometry>
        </mxCell>
        <mxCell id="2mbNPDo5h_TuIW9_OA9t-43" style="edgeStyle=orthogonalEdgeStyle;rounded=0;orthogonalLoop=1;jettySize=auto;html=1;entryX=0.5;entryY=0;entryDx=0;entryDy=0;" edge="1" parent="1" source="DeHTJNHGIXKyEyiTh7xm-27" target="D6wJzif5LY3Q9ZG8cFxP-7">
          <mxGeometry relative="1" as="geometry">
            <Array as="points">
              <mxPoint x="3455" y="-1730" />
              <mxPoint x="3177" y="-1730" />
            </Array>
          </mxGeometry>
        </mxCell>
        <mxCell id="2mbNPDo5h_TuIW9_OA9t-44" style="edgeStyle=orthogonalEdgeStyle;rounded=0;orthogonalLoop=1;jettySize=auto;html=1;entryX=0.5;entryY=0;entryDx=0;entryDy=0;" edge="1" parent="1" source="DeHTJNHGIXKyEyiTh7xm-27" target="DeHTJNHGIXKyEyiTh7xm-12">
          <mxGeometry relative="1" as="geometry">
            <Array as="points">
              <mxPoint x="3455" y="-1740" />
              <mxPoint x="3697" y="-1740" />
            </Array>
          </mxGeometry>
        </mxCell>
        <mxCell id="DeHTJNHGIXKyEyiTh7xm-27" value="" style="sketch=0;aspect=fixed;pointerEvents=1;shadow=0;dashed=0;html=1;strokeColor=none;labelPosition=center;verticalLabelPosition=bottom;verticalAlign=top;align=center;fillColor=#00188D;shape=mxgraph.azure.laptop" parent="1" vertex="1">
          <mxGeometry x="3304.96" y="-2090" width="300" height="180" as="geometry" />
        </mxCell>
        <mxCell id="2mbNPDo5h_TuIW9_OA9t-46" style="edgeStyle=orthogonalEdgeStyle;rounded=0;orthogonalLoop=1;jettySize=auto;html=1;entryX=0.5;entryY=0;entryDx=0;entryDy=0;" edge="1" parent="1" source="D6wJzif5LY3Q9ZG8cFxP-5" target="2mbNPDo5h_TuIW9_OA9t-1">
          <mxGeometry relative="1" as="geometry" />
        </mxCell>
        <mxCell id="D6wJzif5LY3Q9ZG8cFxP-5" value="PORT-FORWARD" style="rounded=0;whiteSpace=wrap;html=1;fontSize=30;" parent="1" vertex="1">
          <mxGeometry x="3060" y="-1420" width="260" height="150" as="geometry" />
        </mxCell>
        <mxCell id="2mbNPDo5h_TuIW9_OA9t-45" style="edgeStyle=orthogonalEdgeStyle;rounded=0;orthogonalLoop=1;jettySize=auto;html=1;entryX=0.25;entryY=0;entryDx=0;entryDy=0;" edge="1" parent="1" source="D6wJzif5LY3Q9ZG8cFxP-6" target="2mbNPDo5h_TuIW9_OA9t-1">
          <mxGeometry relative="1" as="geometry">
            <mxPoint x="3490" y="-1170.0000000000005" as="targetPoint" />
            <Array as="points">
              <mxPoint x="2910" y="-1180" />
              <mxPoint x="3420" y="-1180" />
            </Array>
          </mxGeometry>
        </mxCell>
        <mxCell id="D6wJzif5LY3Q9ZG8cFxP-6" value="Minikube service ..." style="rounded=0;whiteSpace=wrap;html=1;fontSize=30;" parent="1" vertex="1">
          <mxGeometry x="2780" y="-1420" width="260" height="150" as="geometry" />
        </mxCell>
        <mxCell id="D6wJzif5LY3Q9ZG8cFxP-7" value="selected port" style="rounded=0;whiteSpace=wrap;html=1;" parent="1" vertex="1">
          <mxGeometry x="3117.08" y="-1480" width="120" height="60" as="geometry" />
        </mxCell>
        <mxCell id="D6wJzif5LY3Q9ZG8cFxP-8" value="port random" style="rounded=0;whiteSpace=wrap;html=1;" parent="1" vertex="1">
          <mxGeometry x="2847.08" y="-1480" width="120" height="60" as="geometry" />
        </mxCell>
        <mxCell id="2mbNPDo5h_TuIW9_OA9t-5" style="edgeStyle=orthogonalEdgeStyle;rounded=0;orthogonalLoop=1;jettySize=auto;html=1;entryX=0.5;entryY=0;entryDx=0;entryDy=0;" edge="1" parent="1" source="2mbNPDo5h_TuIW9_OA9t-1" target="2mbNPDo5h_TuIW9_OA9t-2">
          <mxGeometry relative="1" as="geometry" />
        </mxCell>
        <mxCell id="2mbNPDo5h_TuIW9_OA9t-1" value="&lt;span style=&quot;font-size: 33px;&quot;&gt;Service Wordpress PHP&lt;/span&gt;" style="rounded=0;whiteSpace=wrap;html=1;fillColor=#B5739D;strokeColor=#9673a6;" vertex="1" parent="1">
          <mxGeometry x="3347" y="-1020" width="290" height="180" as="geometry" />
        </mxCell>
        <mxCell id="2mbNPDo5h_TuIW9_OA9t-2" value="" style="rounded=0;whiteSpace=wrap;html=1;fillColor=none;strokeColor=#d6b656;strokeWidth=8;" vertex="1" parent="1">
          <mxGeometry x="2882" y="-720" width="1220" height="340" as="geometry" />
        </mxCell>
        <mxCell id="2mbNPDo5h_TuIW9_OA9t-3" value="&lt;span style=&quot;font-size: 33px;&quot;&gt;Pod Template&lt;/span&gt;" style="rounded=0;whiteSpace=wrap;html=1;fillColor=#e1d5e7;strokeColor=#9673a6;glass=1;sketch=1;curveFitting=1;jiggle=2;" vertex="1" parent="1">
          <mxGeometry x="4102" y="-720" width="230" height="110" as="geometry" />
        </mxCell>
        <mxCell id="2mbNPDo5h_TuIW9_OA9t-15" style="edgeStyle=orthogonalEdgeStyle;rounded=0;orthogonalLoop=1;jettySize=auto;html=1;entryX=0.5;entryY=0;entryDx=0;entryDy=0;" edge="1" parent="1" source="2mbNPDo5h_TuIW9_OA9t-4" target="2mbNPDo5h_TuIW9_OA9t-8">
          <mxGeometry relative="1" as="geometry">
            <Array as="points">
              <mxPoint x="3155" y="-240" />
              <mxPoint x="3492" y="-240" />
            </Array>
          </mxGeometry>
        </mxCell>
        <mxCell id="2mbNPDo5h_TuIW9_OA9t-16" value="wordpress-mysql" style="edgeLabel;html=1;align=center;verticalAlign=middle;resizable=0;points=[];fontSize=30;" vertex="1" connectable="0" parent="2mbNPDo5h_TuIW9_OA9t-15">
          <mxGeometry x="-0.0896" relative="1" as="geometry">
            <mxPoint as="offset" />
          </mxGeometry>
        </mxCell>
        <mxCell id="2mbNPDo5h_TuIW9_OA9t-35" style="edgeStyle=orthogonalEdgeStyle;rounded=0;orthogonalLoop=1;jettySize=auto;html=1;entryX=0;entryY=0.5;entryDx=0;entryDy=0;" edge="1" parent="1" source="2mbNPDo5h_TuIW9_OA9t-4" target="2mbNPDo5h_TuIW9_OA9t-33">
          <mxGeometry relative="1" as="geometry">
            <Array as="points">
              <mxPoint x="3580" y="-550" />
              <mxPoint x="3580" y="-235" />
            </Array>
          </mxGeometry>
        </mxCell>
        <mxCell id="2mbNPDo5h_TuIW9_OA9t-39" value="&lt;pre tabindex=&quot;0&quot; style=&quot;background-color:#f8f8f8;-moz-tab-size:4;-o-tab-size:4;tab-size:4&quot;&gt;&lt;code class=&quot;language-yaml&quot; data-lang=&quot;yaml&quot;&gt;&lt;span style=&quot;display:flex&quot;&gt;/var/www/html&lt;span style=&quot;color:#bbb&quot;&gt;&lt;/span&gt;&lt;/span&gt;&lt;/code&gt;&lt;/pre&gt;" style="edgeLabel;html=1;align=center;verticalAlign=middle;resizable=0;points=[];fontSize=30;" vertex="1" connectable="0" parent="2mbNPDo5h_TuIW9_OA9t-35">
          <mxGeometry x="-0.0212" y="-1" relative="1" as="geometry">
            <mxPoint y="1" as="offset" />
          </mxGeometry>
        </mxCell>
        <mxCell id="2mbNPDo5h_TuIW9_OA9t-4" value="&lt;span style=&quot;font-size: 33px;&quot;&gt;Pod Wordpress PHP&lt;/span&gt;" style="rounded=0;whiteSpace=wrap;html=1;fillColor=#e1d5e7;strokeColor=#9673a6;" vertex="1" parent="1">
          <mxGeometry x="3010" y="-640" width="290" height="180" as="geometry" />
        </mxCell>
        <mxCell id="2mbNPDo5h_TuIW9_OA9t-6" value="" style="aspect=fixed;sketch=0;html=1;dashed=0;whitespace=wrap;verticalLabelPosition=bottom;verticalAlign=top;fillColor=#2875E2;strokeColor=#ffffff;points=[[0.005,0.63,0],[0.1,0.2,0],[0.9,0.2,0],[0.5,0,0],[0.995,0.63,0],[0.72,0.99,0],[0.5,1,0],[0.28,0.99,0]];shape=mxgraph.kubernetes.icon2;prIcon=pod" vertex="1" parent="1">
          <mxGeometry x="2980" y="-680" width="72.92" height="70" as="geometry" />
        </mxCell>
        <mxCell id="2mbNPDo5h_TuIW9_OA9t-7" value="" style="aspect=fixed;sketch=0;html=1;dashed=0;whitespace=wrap;verticalLabelPosition=bottom;verticalAlign=top;fillColor=#2875E2;strokeColor=#ffffff;points=[[0.005,0.63,0],[0.1,0.2,0],[0.9,0.2,0],[0.5,0,0],[0.995,0.63,0],[0.72,0.99,0],[0.5,1,0],[0.28,0.99,0]];shape=mxgraph.kubernetes.icon2;prIcon=svc" vertex="1" parent="1">
          <mxGeometry x="3320" y="-1060" width="72.92" height="70" as="geometry" />
        </mxCell>
        <mxCell id="2mbNPDo5h_TuIW9_OA9t-10" style="edgeStyle=orthogonalEdgeStyle;rounded=0;orthogonalLoop=1;jettySize=auto;html=1;entryX=0.5;entryY=0;entryDx=0;entryDy=0;" edge="1" parent="1" source="2mbNPDo5h_TuIW9_OA9t-8" target="2mbNPDo5h_TuIW9_OA9t-9">
          <mxGeometry relative="1" as="geometry" />
        </mxCell>
        <mxCell id="2mbNPDo5h_TuIW9_OA9t-8" value="&lt;span style=&quot;font-size: 33px;&quot;&gt;Service MySQL&lt;/span&gt;&lt;div&gt;&lt;span style=&quot;font-size: 33px;&quot;&gt;wordpress-mysql&lt;/span&gt;&lt;/div&gt;" style="rounded=0;whiteSpace=wrap;html=1;fillColor=#152DFF;strokeColor=#6c8ebf;fontColor=#FFFFFF;" vertex="1" parent="1">
          <mxGeometry x="3347" y="-40" width="290" height="180" as="geometry" />
        </mxCell>
        <mxCell id="2mbNPDo5h_TuIW9_OA9t-9" value="" style="rounded=0;whiteSpace=wrap;html=1;fillColor=none;strokeColor=#d6b656;strokeWidth=8;" vertex="1" parent="1">
          <mxGeometry x="2882" y="302" width="1220" height="340" as="geometry" />
        </mxCell>
        <mxCell id="2mbNPDo5h_TuIW9_OA9t-37" style="edgeStyle=orthogonalEdgeStyle;rounded=0;orthogonalLoop=1;jettySize=auto;html=1;entryX=0;entryY=0.5;entryDx=0;entryDy=0;" edge="1" parent="1" source="2mbNPDo5h_TuIW9_OA9t-11" target="2mbNPDo5h_TuIW9_OA9t-32">
          <mxGeometry relative="1" as="geometry" />
        </mxCell>
        <mxCell id="2mbNPDo5h_TuIW9_OA9t-40" value="&lt;pre tabindex=&quot;0&quot; style=&quot;background-color:#f8f8f8;-moz-tab-size:4;-o-tab-size:4;tab-size:4&quot;&gt;&lt;code class=&quot;language-yaml&quot; data-lang=&quot;yaml&quot;&gt;&lt;span style=&quot;display:flex&quot;&gt;/var/lib/mysql&lt;/span&gt;&lt;/code&gt;&lt;/pre&gt;" style="edgeLabel;html=1;align=center;verticalAlign=middle;resizable=0;points=[];fontSize=30;" vertex="1" connectable="0" parent="2mbNPDo5h_TuIW9_OA9t-37">
          <mxGeometry x="0.1381" relative="1" as="geometry">
            <mxPoint y="1" as="offset" />
          </mxGeometry>
        </mxCell>
        <mxCell id="2mbNPDo5h_TuIW9_OA9t-11" value="&lt;span style=&quot;font-size: 33px;&quot;&gt;Pod MySQL&lt;/span&gt;" style="rounded=0;whiteSpace=wrap;html=1;fillColor=#dae8fc;strokeColor=#6c8ebf;" vertex="1" parent="1">
          <mxGeometry x="3010" y="390" width="290" height="180" as="geometry" />
        </mxCell>
        <mxCell id="2mbNPDo5h_TuIW9_OA9t-12" value="" style="aspect=fixed;sketch=0;html=1;dashed=0;whitespace=wrap;verticalLabelPosition=bottom;verticalAlign=top;fillColor=#2875E2;strokeColor=#ffffff;points=[[0.005,0.63,0],[0.1,0.2,0],[0.9,0.2,0],[0.5,0,0],[0.995,0.63,0],[0.72,0.99,0],[0.5,1,0],[0.28,0.99,0]];shape=mxgraph.kubernetes.icon2;prIcon=pod" vertex="1" parent="1">
          <mxGeometry x="2980" y="350" width="72.92" height="70" as="geometry" />
        </mxCell>
        <mxCell id="2mbNPDo5h_TuIW9_OA9t-13" value="" style="aspect=fixed;sketch=0;html=1;dashed=0;whitespace=wrap;verticalLabelPosition=bottom;verticalAlign=top;fillColor=#2875E2;strokeColor=#ffffff;points=[[0.005,0.63,0],[0.1,0.2,0],[0.9,0.2,0],[0.5,0,0],[0.995,0.63,0],[0.72,0.99,0],[0.5,1,0],[0.28,0.99,0]];shape=mxgraph.kubernetes.icon2;prIcon=deploy" vertex="1" parent="1">
          <mxGeometry x="2850" y="-760" width="72.92" height="70" as="geometry" />
        </mxCell>
        <mxCell id="2mbNPDo5h_TuIW9_OA9t-14" value="" style="aspect=fixed;sketch=0;html=1;dashed=0;whitespace=wrap;verticalLabelPosition=bottom;verticalAlign=top;fillColor=#2875E2;strokeColor=#ffffff;points=[[0.005,0.63,0],[0.1,0.2,0],[0.9,0.2,0],[0.5,0,0],[0.995,0.63,0],[0.72,0.99,0],[0.5,1,0],[0.28,0.99,0]];shape=mxgraph.kubernetes.icon2;prIcon=deploy" vertex="1" parent="1">
          <mxGeometry x="2850" y="260" width="72.92" height="70" as="geometry" />
        </mxCell>
        <mxCell id="2mbNPDo5h_TuIW9_OA9t-17" value="&lt;span style=&quot;font-size: 33px;&quot;&gt;Pod Template&lt;/span&gt;" style="rounded=0;whiteSpace=wrap;html=1;fillColor=#dae8fc;strokeColor=#6c8ebf;glass=1;sketch=1;curveFitting=1;jiggle=2;" vertex="1" parent="1">
          <mxGeometry x="4102" y="302" width="290" height="144" as="geometry" />
        </mxCell>
        <mxCell id="2mbNPDo5h_TuIW9_OA9t-22" value="" style="aspect=fixed;sketch=0;html=1;dashed=0;whitespace=wrap;verticalLabelPosition=bottom;verticalAlign=top;fillColor=#2875E2;strokeColor=#ffffff;points=[[0.005,0.63,0],[0.1,0.2,0],[0.9,0.2,0],[0.5,0,0],[0.995,0.63,0],[0.72,0.99,0],[0.5,1,0],[0.28,0.99,0]];shape=mxgraph.kubernetes.icon2;prIcon=svc" vertex="1" parent="1">
          <mxGeometry x="3320" y="-80" width="72.92" height="70" as="geometry" />
        </mxCell>
        <mxCell id="2mbNPDo5h_TuIW9_OA9t-26" style="rounded=0;orthogonalLoop=1;jettySize=auto;html=1;entryX=1;entryY=0.25;entryDx=0;entryDy=0;edgeStyle=orthogonalEdgeStyle;" edge="1" parent="1" source="2mbNPDo5h_TuIW9_OA9t-4" target="2mbNPDo5h_TuIW9_OA9t-23">
          <mxGeometry relative="1" as="geometry">
            <Array as="points">
              <mxPoint x="2800" y="-550" />
              <mxPoint x="2800" y="-78" />
            </Array>
          </mxGeometry>
        </mxCell>
        <mxCell id="2mbNPDo5h_TuIW9_OA9t-27" style="edgeStyle=orthogonalEdgeStyle;rounded=0;orthogonalLoop=1;jettySize=auto;html=1;entryX=1;entryY=0.75;entryDx=0;entryDy=0;" edge="1" parent="1" source="2mbNPDo5h_TuIW9_OA9t-11" target="2mbNPDo5h_TuIW9_OA9t-23">
          <mxGeometry relative="1" as="geometry">
            <Array as="points">
              <mxPoint x="2800" y="480" />
              <mxPoint x="2800" y="9" />
              <mxPoint x="2640" y="9" />
            </Array>
          </mxGeometry>
        </mxCell>
        <mxCell id="2mbNPDo5h_TuIW9_OA9t-28" value="" style="group" vertex="1" connectable="0" parent="1">
          <mxGeometry x="2300" y="-165" width="340" height="240" as="geometry" />
        </mxCell>
        <mxCell id="2mbNPDo5h_TuIW9_OA9t-23" value="&lt;pre style=&quot;background-color:#f8f8f8;-moz-tab-size:4;-o-tab-size:4;tab-size:4&quot; tabindex=&quot;0&quot;&gt;&lt;code data-lang=&quot;shell&quot; class=&quot;language-shell&quot;&gt;&lt;span style=&quot;display:flex&quot;&gt;&lt;span style=&quot;color:#b44&quot;&gt;mysql-pass&lt;/span&gt;&lt;/span&gt;&lt;/code&gt;&lt;/pre&gt;" style="rounded=0;whiteSpace=wrap;html=1;verticalAlign=bottom;" vertex="1" parent="2mbNPDo5h_TuIW9_OA9t-28">
          <mxGeometry x="30" y="36" width="310" height="204" as="geometry" />
        </mxCell>
        <mxCell id="2mbNPDo5h_TuIW9_OA9t-20" value="" style="aspect=fixed;sketch=0;html=1;dashed=0;whitespace=wrap;verticalLabelPosition=bottom;verticalAlign=top;fillColor=#2875E2;strokeColor=#ffffff;points=[[0.005,0.63,0],[0.1,0.2,0],[0.9,0.2,0],[0.5,0,0],[0.995,0.63,0],[0.72,0.99,0],[0.5,1,0],[0.28,0.99,0]];shape=mxgraph.kubernetes.icon2;kubernetesLabel=1;prIcon=secret" vertex="1" parent="2mbNPDo5h_TuIW9_OA9t-28">
          <mxGeometry width="72.92" height="70" as="geometry" />
        </mxCell>
        <mxCell id="2mbNPDo5h_TuIW9_OA9t-24" value="" style="points=[[0,0.5,0],[0.24,0,0],[0.5,0.28,0],[0.995,0.475,0],[0.5,0.72,0],[0.24,1,0]];verticalLabelPosition=bottom;sketch=0;html=1;verticalAlign=top;aspect=fixed;align=center;pointerEvents=1;shape=mxgraph.cisco19.key;fillColor=#005073;strokeColor=none;" vertex="1" parent="2mbNPDo5h_TuIW9_OA9t-28">
          <mxGeometry x="90" y="126.75" width="50" height="22.5" as="geometry" />
        </mxCell>
        <mxCell id="2mbNPDo5h_TuIW9_OA9t-25" value="&lt;pre style=&quot;background-color:#f8f8f8;-moz-tab-size:4;-o-tab-size:4;tab-size:4&quot; tabindex=&quot;0&quot;&gt;&lt;code data-lang=&quot;shell&quot; class=&quot;language-shell&quot;&gt;&lt;span style=&quot;display:flex&quot;&gt;&lt;span style=&quot;color:#b44&quot;&gt;password&lt;/span&gt;&lt;/span&gt;&lt;/code&gt;&lt;/pre&gt;" style="rounded=1;whiteSpace=wrap;html=1;" vertex="1" parent="2mbNPDo5h_TuIW9_OA9t-28">
          <mxGeometry x="150" y="108" width="120" height="60" as="geometry" />
        </mxCell>
        <mxCell id="2mbNPDo5h_TuIW9_OA9t-29" value="PV Claim&lt;div&gt;&lt;pre style=&quot;background-color:#f8f8f8;-moz-tab-size:4;-o-tab-size:4;tab-size:4&quot; tabindex=&quot;0&quot;&gt;&lt;code data-lang=&quot;yaml&quot; class=&quot;language-yaml&quot;&gt;&lt;span style=&quot;display:flex&quot;&gt;mysql-pv-claim&lt;span style=&quot;color:#bbb&quot;&gt;&lt;/span&gt;&lt;/span&gt;&lt;/code&gt;&lt;/pre&gt;&lt;/div&gt;" style="rounded=1;whiteSpace=wrap;html=1;fontSize=40;" vertex="1" parent="1">
          <mxGeometry x="4488" y="385" width="340" height="196" as="geometry" />
        </mxCell>
        <mxCell id="2mbNPDo5h_TuIW9_OA9t-19" value="" style="aspect=fixed;sketch=0;html=1;dashed=0;whitespace=wrap;verticalLabelPosition=bottom;verticalAlign=top;fillColor=#2875E2;strokeColor=#ffffff;points=[[0.005,0.63,0],[0.1,0.2,0],[0.9,0.2,0],[0.5,0,0],[0.995,0.63,0],[0.72,0.99,0],[0.5,1,0],[0.28,0.99,0]];shape=mxgraph.kubernetes.icon2;prIcon=pvc" vertex="1" parent="1">
          <mxGeometry x="4470" y="363" width="72.92" height="70" as="geometry" />
        </mxCell>
        <mxCell id="2mbNPDo5h_TuIW9_OA9t-30" value="PV Claim&lt;div&gt;&lt;span style=&quot;background-color: rgb(248, 248, 248); color: light-dark(rgb(0, 0, 0), rgb(255, 255, 255));&quot;&gt;wp-pv-claim&lt;/span&gt;&lt;/div&gt;" style="rounded=1;whiteSpace=wrap;html=1;fontSize=40;" vertex="1" parent="1">
          <mxGeometry x="4488" y="-618" width="340" height="196" as="geometry" />
        </mxCell>
        <mxCell id="2mbNPDo5h_TuIW9_OA9t-31" value="" style="aspect=fixed;sketch=0;html=1;dashed=0;whitespace=wrap;verticalLabelPosition=bottom;verticalAlign=top;fillColor=#2875E2;strokeColor=#ffffff;points=[[0.005,0.63,0],[0.1,0.2,0],[0.9,0.2,0],[0.5,0,0],[0.995,0.63,0],[0.72,0.99,0],[0.5,1,0],[0.28,0.99,0]];shape=mxgraph.kubernetes.icon2;prIcon=pvc" vertex="1" parent="1">
          <mxGeometry x="4470" y="-640" width="72.92" height="70" as="geometry" />
        </mxCell>
        <mxCell id="2mbNPDo5h_TuIW9_OA9t-38" style="edgeStyle=orthogonalEdgeStyle;rounded=0;orthogonalLoop=1;jettySize=auto;html=1;entryX=0.5;entryY=1;entryDx=0;entryDy=0;" edge="1" parent="1" source="2mbNPDo5h_TuIW9_OA9t-32" target="2mbNPDo5h_TuIW9_OA9t-29">
          <mxGeometry relative="1" as="geometry" />
        </mxCell>
        <mxCell id="2mbNPDo5h_TuIW9_OA9t-32" value="Volume&lt;div&gt;&lt;pre style=&quot;background-color:#f8f8f8;-moz-tab-size:4;-o-tab-size:4;tab-size:4&quot; tabindex=&quot;0&quot;&gt;&lt;code data-lang=&quot;yaml&quot; class=&quot;language-yaml&quot;&gt;&lt;span style=&quot;display:flex&quot;&gt;mysql-persistent-storage&lt;/span&gt;&lt;/code&gt;&lt;/pre&gt;&lt;div&gt;&lt;span style=&quot;color: rgba(0, 0, 0, 0); font-family: monospace; font-size: 0px; text-align: start; text-wrap-mode: nowrap;&quot;&gt;%3CmxGraphModel%3E%3Croot%3E%3CmxCell%20id%3D%220%22%2F%3E%3CmxCell%20id%3D%221%22%20parent%3D%220%22%2F%3E%3CmxCell%20id%3D%222%22%20value%3D%22PV%20Claim%26lt%3Bdiv%26gt%3B%26lt%3Bspan%20style%3D%26quot%3Bbackground-color%3A%20rgb(248%2C%20248%2C%20248)%3B%20color%3A%20light-dark(rgb(0%2C%200%2C%200)%2C%20rgb(255%2C%20255%2C%20255))%3B%26quot%3B%26gt%3Bwp-pv-claim%26lt%3B%2Fspan%26gt%3B%26lt%3B%2Fdiv%26gt%3B%22%20style%3D%22rounded%3D1%3BwhiteSpace%3Dwrap%3Bhtml%3D1%3BfontSize%3D40%3B%22%20vertex%3D%221%22%20parent%3D%221%22%3E%3CmxGeometry%20x%3D%224488%22%20y%3D%22-618%22%20width%3D%22340%22%20height%3D%22196%22%20as%3D%22geometry%22%2F%3E%3C%2FmxCell%3E%3C%2Froot%3E%3C%2FmxGraphModel%3E&lt;/span&gt;&lt;span style=&quot;color: rgba(0, 0, 0, 0); font-family: monospace; font-size: 0px; text-align: start; text-wrap-mode: nowrap; background-color: transparent;&quot;&gt;%3CmxGraphModel%3E%3Croot%3E%3CmxCell%20id%3D%220%22%2F%3E%3CmxCell%20id%3D%221%22%20parent%3D%220%22%2F%3E%3CmxCell%20id%3D%222%22%20value%3D%22PV%20Claim%26lt%3Bdiv%26gt%3B%26lt%3Bspan%20style%3D%26quot%3Bbackground-color%3A%20rgb(248%2C%20248%2C%20248)%3B%20color%3A%20light-dark(rgb(0%2C%200%2C%200)%2C%20rgb(255%2C%20255%2C%20255))%3B%26quot%3B%26gt%3Bwp-pv-claim%26lt%3B%2Fspan%26gt%3B%26lt%3B%2Fdiv%26gt%3B%22%20style%3D%22rounded%3D1%3BwhiteSpace%3Dwrap%3Bhtml%3D1%3BfontSize%3D40%3B%22%20vertex%3D%221%22%20parent%3D%221%22%3E%3CmxGeometry%20x%3D%224488%22%20y%3D%22-618%22%20width%3D%22340%22%20height%3D%22196%22%20as%3D%22geometry%22%2F%3E%3C%2FmxCell%3E%3C%2Froot%3E%3C%2FmxGraphModel&lt;/span&gt;&lt;/div&gt;&lt;div&gt;&lt;span style=&quot;color: rgba(0, 0, 0, 0); font-family: monospace; font-size: 0px; text-align: start; text-wrap-mode: nowrap; background-color: transparent;&quot;&gt;&lt;pre style=&quot;background-color:#f8f8f8;-moz-tab-size:4;-o-tab-size:4;tab-size:4&quot; tabindex=&quot;0&quot;&gt;&lt;code data-lang=&quot;yaml&quot; class=&quot;language-yaml&quot;&gt;&lt;span style=&quot;display:flex&quot;&gt;mysql-persistent-storage&lt;/span&gt;&lt;/code&gt;&lt;/pre&gt;&lt;/span&gt;&lt;/div&gt;&lt;/div&gt;" style="rounded=1;whiteSpace=wrap;html=1;fontSize=30;" vertex="1" parent="1">
          <mxGeometry x="4030" y="730" width="600" height="190" as="geometry" />
        </mxCell>
        <mxCell id="2mbNPDo5h_TuIW9_OA9t-18" value="" style="aspect=fixed;sketch=0;html=1;dashed=0;whitespace=wrap;verticalLabelPosition=bottom;verticalAlign=top;fillColor=#2875E2;strokeColor=#ffffff;points=[[0.005,0.63,0],[0.1,0.2,0],[0.9,0.2,0],[0.5,0,0],[0.995,0.63,0],[0.72,0.99,0],[0.5,1,0],[0.28,0.99,0]];shape=mxgraph.kubernetes.icon2;prIcon=pv" vertex="1" parent="1">
          <mxGeometry x="3998" y="700" width="72.92" height="70" as="geometry" />
        </mxCell>
        <mxCell id="2mbNPDo5h_TuIW9_OA9t-36" style="edgeStyle=orthogonalEdgeStyle;rounded=0;orthogonalLoop=1;jettySize=auto;html=1;entryX=0.5;entryY=1;entryDx=0;entryDy=0;" edge="1" parent="1" source="2mbNPDo5h_TuIW9_OA9t-33" target="2mbNPDo5h_TuIW9_OA9t-30">
          <mxGeometry relative="1" as="geometry" />
        </mxCell>
        <mxCell id="2mbNPDo5h_TuIW9_OA9t-33" value="Volume&lt;div&gt;&lt;pre style=&quot;background-color:#f8f8f8;-moz-tab-size:4;-o-tab-size:4;tab-size:4&quot; tabindex=&quot;0&quot;&gt;&lt;code data-lang=&quot;yaml&quot; class=&quot;language-yaml&quot;&gt;&lt;span style=&quot;display:flex&quot;&gt;wordpress-persistent-storage&lt;/span&gt;&lt;/code&gt;&lt;/pre&gt;&lt;div&gt;&lt;span style=&quot;color: rgba(0, 0, 0, 0); font-family: monospace; font-size: 0px; text-align: start; text-wrap-mode: nowrap;&quot;&gt;%3CmxGraphModel%3E%3Croot%3E%3CmxCell%20id%3D%220%22%2F%3E%3CmxCell%20id%3D%221%22%20parent%3D%220%22%2F%3E%3CmxCell%20id%3D%222%22%20value%3D%22PV%20Claim%26lt%3Bdiv%26gt%3B%26lt%3Bspan%20style%3D%26quot%3Bbackground-color%3A%20rgb(248%2C%20248%2C%20248)%3B%20color%3A%20light-dark(rgb(0%2C%200%2C%200)%2C%20rgb(255%2C%20255%2C%20255))%3B%26quot%3B%26gt%3Bwp-pv-claim%26lt%3B%2Fspan%26gt%3B%26lt%3B%2Fdiv%26gt%3B%22%20style%3D%22rounded%3D1%3BwhiteSpace%3Dwrap%3Bhtml%3D1%3BfontSize%3D40%3B%22%20vertex%3D%221%22%20parent%3D%221%22%3E%3CmxGeometry%20x%3D%224488%22%20y%3D%22-618%22%20width%3D%22340%22%20height%3D%22196%22%20as%3D%22geometry%22%2F%3E%3C%2FmxCell%3E%3C%2Froot%3E%3C%2FmxGraphModel%3E&lt;/span&gt;&lt;span style=&quot;color: rgba(0, 0, 0, 0); font-family: monospace; font-size: 0px; text-align: start; text-wrap-mode: nowrap; background-color: transparent;&quot;&gt;%3CmxGraphModel%3E%3Croot%3E%3CmxCell%20id%3D%220%22%2F%3E%3CmxCell%20id%3D%221%22%20parent%3D%220%22%2F%3E%3CmxCell%20id%3D%222%22%20value%3D%22PV%20Claim%26lt%3Bdiv%26gt%3B%26lt%3Bspan%20style%3D%26quot%3Bbackground-color%3A%20rgb(248%2C%20248%2C%20248)%3B%20color%3A%20light-dark(rgb(0%2C%200%2C%200)%2C%20rgb(255%2C%20255%2C%20255))%3B%26quot%3B%26gt%3Bwp-pv-claim%26lt%3B%2Fspan%26gt%3B%26lt%3B%2Fdiv%26gt%3B%22%20style%3D%22rounded%3D1%3BwhiteSpace%3Dwrap%3Bhtml%3D1%3BfontSize%3D40%3B%22%20vertex%3D%221%22%20parent%3D%221%22%3E%3CmxGeometry%20x%3D%224488%22%20y%3D%22-618%22%20width%3D%22340%22%20height%3D%22196%22%20as%3D%22geometry%22%2F%3E%3C%2FmxCell%3E%3C%2Froot%3E%3C%2FmxGraphModel&lt;/span&gt;&lt;/div&gt;&lt;div&gt;&lt;span style=&quot;color: rgba(0, 0, 0, 0); font-family: monospace; font-size: 0px; text-align: start; text-wrap-mode: nowrap; background-color: transparent;&quot;&gt;&lt;pre style=&quot;background-color:#f8f8f8;-moz-tab-size:4;-o-tab-size:4;tab-size:4&quot; tabindex=&quot;0&quot;&gt;&lt;code data-lang=&quot;yaml&quot; class=&quot;language-yaml&quot;&gt;&lt;span style=&quot;display:flex&quot;&gt;mysql-persistent-storage&lt;/span&gt;&lt;/code&gt;&lt;/pre&gt;&lt;/span&gt;&lt;/div&gt;&lt;/div&gt;" style="rounded=1;whiteSpace=wrap;html=1;fontSize=30;" vertex="1" parent="1">
          <mxGeometry x="4046" y="-330" width="600" height="190" as="geometry" />
        </mxCell>
        <mxCell id="2mbNPDo5h_TuIW9_OA9t-34" value="" style="aspect=fixed;sketch=0;html=1;dashed=0;whitespace=wrap;verticalLabelPosition=bottom;verticalAlign=top;fillColor=#2875E2;strokeColor=#ffffff;points=[[0.005,0.63,0],[0.1,0.2,0],[0.9,0.2,0],[0.5,0,0],[0.995,0.63,0],[0.72,0.99,0],[0.5,1,0],[0.28,0.99,0]];shape=mxgraph.kubernetes.icon2;prIcon=pv" vertex="1" parent="1">
          <mxGeometry x="4014" y="-360" width="72.92" height="70" as="geometry" />
        </mxCell>
      </root>
    </mxGraphModel>
  </diagram>
</mxfile>
